<?xml version="1.0" encoding="UTF-8"?>
<svg xmlns="http://www.w3.org/2000/svg" viewBox="0 0 1920 380.23">
  <path fill="#1e1e1e" d="M0,0v380.23h1920V0H0ZM229.86,234.78c0,49.6-24.09,69.03-89.95,69.03h-4.81c-59.17,0-87.38-19.43-87.38-67.84v-115.11h48.41v111.77c0,41.53,16.73,51.7,51.49,51.7h1.78c42.37,0,55.55-16.83,55.55-54.32v-109.16h24.9v113.92ZM533.37,300.72h-22.95s-133.73-121.5-133.73-121.5v121.5h-24.9V120.86h23.12l133.56,118.61v-118.61h24.9v179.86ZM716.33,300.72h-46.76V120.86h46.76v179.86ZM1036.17,292.42c-19.55,5.93-53.63,11.39-80.73,11.39-75.45,0-117.56-30.22-117.56-88.57v-3.85c0-60.18,42.91-95.51,119.24-95.51,24.97,0,57.57,8.79,73.27,18.84v26.18c-15.23-14.84-48.18-29.6-75.51-29.6-35.24,0-64.74,23.29-64.74,76.49,0,45.77,14.75,79.88,69.22,79.88,8.18,0,21.03-.65,30.44-2.32v-66.34h46.37v73.4ZM1305.91,138.42h-99.43v60.27h82.39v17.56h-82.39v66.92h99.43v17.56h-145.26V120.86h145.26v17.56ZM1553.46,300.73l-64.76-143.83-68.62,143.83h-26.77s86.6-179.86,86.6-179.86h38.71l83.32,179.86h-48.48ZM1822.39,300.72l-45.24-85.21c25.14-4.94,36.37-17.35,36.37-41.02,0-25.5-17.95-36.08-44.98-36.08h-23.83v162.3h-45.49s0-179.86,0-179.86h74.85c53.46,0,84.75,14.48,84.75,48.64,0,23.58-11.78,37.29-33.91,46.23l47.37,85h-49.89Z"/>
</svg>