<?xml version="1.0" encoding="UTF-8"?>
<svg xmlns="http://www.w3.org/2000/svg" viewBox="0 0 239.3 24.65">
  <path fill="#efeee8" d="M20.62,14.97c0,4.92-1.73,7.12-7.29,7.12h-.23c-4.56,0-6.75-1.33-6.75-6.78V.65H0v15.1c0,6.35,3.7,8.9,11.46,8.9h.63c8.64,0,11.8-2.55,11.8-9.05V.65h-3.27v14.32Z"/>
  <rect fill="#efeee8" x="81.56" y=".65" width="6.13" height="23.59"/>
  <polygon fill="#efeee8" points="145.97 24.24 165.02 24.24 165.02 21.94 151.98 21.94 151.98 13.16 162.78 13.16 162.78 10.86 151.98 10.86 151.98 2.96 165.02 2.96 165.02 .65 145.97 .65 145.97 24.24"/>
  <path fill="#efeee8" d="M123.56,22.23c-1.23.22-2.92.3-3.99.3-7.14,0-9.08-4.47-9.08-10.48,0-6.98,3.87-10.03,8.49-10.03,3.58,0,7.91,1.94,9.9,3.88v-3.43c-2.06-1.32-6.34-2.47-9.61-2.47-10.01,0-15.64,4.63-15.64,12.53v.51c0,7.65,5.52,11.62,15.42,11.62,3.55,0,8.02-.72,10.59-1.49v-9.63h-6.08v8.7Z"/>
  <polygon fill="#efeee8" points="60.43 16.21 42.91 .65 39.88 .65 39.88 24.24 43.15 24.24 43.15 8.31 60.69 24.24 63.7 24.24 63.7 .65 60.43 .65 60.43 16.21"/>
  <polygon fill="#efeee8" points="187.84 .65 176.48 24.24 179.99 24.24 188.99 5.38 197.49 24.24 203.84 24.24 192.92 .65 187.84 .65"/>
  <path fill="#efeee8" d="M233.09,13.1c2.9-1.17,4.45-2.97,4.45-6.06,0-4.48-4.1-6.38-11.12-6.38h-9.82v23.59h5.97V2.96h3.13c3.54,0,5.9,1.39,5.9,4.73,0,3.1-1.47,4.73-4.77,5.38l5.93,11.18h6.54s-6.21-11.15-6.21-11.15Z"/>
</svg>