<?xml version="1.0" encoding="UTF-8"?>
<svg id="_圖層_2" data-name="圖層 2" xmlns="http://www.w3.org/2000/svg" viewBox="0 0 23.3 23.3">
  <defs>
    <style>
      .cls-1 {
        fill: #efeee8;
      }
    </style>
  </defs>
  <g id="_圖層_2-2" data-name="圖層 2">
    <g>
      <path class="cls-1" d="M11.65,23.3C5.23,23.3,0,18.07,0,11.65S5.23,0,11.65,0s11.65,5.23,11.65,11.65-5.23,11.65-11.65,11.65ZM11.65,1.8C6.22,1.8,1.8,6.22,1.8,11.65s4.42,9.85,9.85,9.85,9.85-4.42,9.85-9.85S17.08,1.8,11.65,1.8Z"/>
      <path class="cls-1" d="M11.65,23.3c-3.75,0-6.69-5.12-6.69-11.65S7.9,0,11.65,0s6.69,5.12,6.69,11.65-2.94,11.65-6.69,11.65ZM11.65,1.8c-2.65,0-4.89,4.51-4.89,9.85s2.24,9.85,4.89,9.85,4.89-4.51,4.89-9.85S14.3,1.8,11.65,1.8Z"/>
      <rect class="cls-1" x="10.75" y=".9" width="1.8" height="21.5"/>
      <rect class="cls-1" x=".9" y="10.75" width="21.5" height="1.8"/>
      <g>
        <path class="cls-1" d="M11.65,7.89c-3.28,0-6.45-.88-8.92-2.48l.98-1.51c2.19,1.41,5.01,2.19,7.95,2.19s5.76-.78,7.95-2.19l.97,1.51c-2.47,1.6-5.64,2.48-8.92,2.48Z"/>
        <path class="cls-1" d="M19.6,19.4c-2.19-1.41-5.01-2.19-7.95-2.19s-5.76.78-7.95,2.19l-.97-1.51c2.47-1.6,5.64-2.47,8.92-2.47s6.45.88,8.92,2.47l-.97,1.51Z"/>
      </g>
    </g>
  </g>
</svg>