<?xml version="1.0" encoding="UTF-8"?>
<svg id="_圖層_2" data-name="圖層 2" xmlns="http://www.w3.org/2000/svg" viewBox="0 0 22.21 23.51">
  <defs>
    <style>
      .cls-1 {
        fill: #efeee8;
      }
    </style>
  </defs>
  <g id="_圖層_2-2" data-name="圖層 2">
    <g>
      <path class="cls-1" d="M11.11,10.71c-2.95,0-5.36-2.4-5.36-5.36S8.15,0,11.11,0s5.36,2.4,5.36,5.36-2.4,5.36-5.36,5.36ZM11.11,1.8c-1.96,0-3.55,1.6-3.55,3.56s1.59,3.56,3.55,3.56,3.56-1.6,3.56-3.56-1.59-3.56-3.56-3.56Z"/>
      <path class="cls-1" d="M22.21,23.51h-1.8c0-5.13-4.17-9.31-9.31-9.31S1.8,18.38,1.8,23.51H0c0-6.12,4.98-11.11,11.11-11.11s11.11,4.98,11.11,11.11Z"/>
    </g>
  </g>
</svg>